<svg width="852" height="542" xmlns="http://www.w3.org/2000/svg" version="1.1"><g transform="translate(0, 10)"><g class="links" fill="none" stroke-opacity="0.4"><path d="M5,240.20776477952884C426,240.20776477952884,426,152.11411622068863,847,152.11411622068863" stroke-width="9.347880062474667" style="stroke: rgb(191, 105, 105);"></path><path d="M5,248.97333009240688C426,248.97333009240688,426,190.2157642714703,847,190.2157642714703" stroke-width="8.183250563281383" style="stroke: rgb(191, 105, 105);"></path><path d="M5,255.39261898955854C426,255.39261898955854,426,287.0033964727341,847,287.0033964727341" stroke-width="4.655327231021915" style="stroke: rgb(191, 105, 105);"></path><path d="M5,259.4076658931701C426,259.4076658931701,426,329.8121884687497,847,329.8121884687497" stroke-width="3.3747665762011736" style="stroke: rgb(191, 105, 105);"></path><path d="M5,262.4702692200441C426,262.4702692200441,426,355.80353292693707,847,355.80353292693707" stroke-width="2.7504400775468754" style="stroke: rgb(191, 105, 105);"></path><path d="M5,265.11435043921716C426,265.11435043921716,426,368.4476141461101,847,368.4476141461101" stroke-width="2.537722360799244" style="stroke: rgb(191, 105, 105);"></path><path d="M5,267.5437306148311C426,267.5437306148311,426,393.31236329875577,847,393.31236329875577" stroke-width="2.321037990428561" style="stroke: rgb(191, 105, 105);"></path><path d="M5,269.8010753370254C426,269.8010753370254,426,405.56970802095003,847,405.56970802095003" stroke-width="2.1936514539599496" style="stroke: rgb(191, 105, 105);"></path><path d="M5,271.8737435895851C426,271.8737435895851,426,417.6423762735098,847,417.6423762735098" stroke-width="1.951685051159519" style="stroke: rgb(191, 105, 105);"></path><path d="M5,162.47381290238948C426,162.47381290238948,426,22.473812902389536,847,22.473812902389536" stroke-width="44.947625804778845" style="stroke: rgb(174, 191, 105);"></path><path d="M5,206.74072286898138C426,206.74072286898138,426,111.03086562239305,847,111.03086562239305" stroke-width="12.497165858923351" style="stroke: rgb(174, 191, 105);"></path><path d="M5,192.71988287214933C426,192.71988287214933,426,62.71988287214928,847,62.71988287214928" stroke-width="15.544514134740819" style="stroke: rgb(174, 191, 105);"></path><path d="M5,216.5825690999616C426,216.5825690999616,426,225.35941133720593,847,225.35941133720593" stroke-width="7.186526603037093" style="stroke: rgb(174, 191, 105);"></path><path d="M5,222.8548285748859C426,222.8548285748859,426,257.2667391526856,847,257.2667391526856" stroke-width="5.357992346811447" style="stroke: rgb(174, 191, 105);"></path><path d="M5,295.91504809435673C426,295.91504809435673,426,208.0367687943992,847,208.0367687943992" stroke-width="7.458758482576377" style="stroke: rgb(105, 191, 139);"></path><path d="M5,287.51762748411664C426,287.51762748411664,426,171.45609762087776,847,171.45609762087776" stroke-width="9.336082737903842" style="stroke: rgb(105, 191, 139);"></path><path d="M5,301.95074286700026C426,301.95074286700026,426,301.6373756196003,847,301.6373756196003" stroke-width="4.612631062710623" style="stroke: rgb(105, 191, 139);"></path><path d="M5,305.2042281711006C426,305.2042281711006,426,429.5653885718346,847,429.5653885718346" stroke-width="1.8943395454901089" style="stroke: rgb(105, 191, 139);"></path><path d="M5,306.99302489655776C426,306.99302489655776,426,453.1037278929917,847,453.1037278929917" stroke-width="1.6832539054242235" style="stroke: rgb(105, 191, 139);"></path><path d="M5,308.60827720229213C426,308.60827720229213,426,476.3432219551702,847,476.3432219551702" stroke-width="1.5472507060444578" style="stroke: rgb(105, 191, 139);"></path><path d="M5,310.14610105682175C426,310.14610105682175,426,487.8810458096998,847,487.8810458096998" stroke-width="1.5283970030148233" style="stroke: rgb(105, 191, 139);"></path><path d="M5,311.506267062781C426,311.506267062781,426,499.24121181565897,847,499.24121181565897" stroke-width="1.1919350089035923" style="stroke: rgb(105, 191, 139);"></path><path d="M5,312.6205744635176C426,312.6205744635176,426,521.481660103715,847,521.481660103715" stroke-width="1.036679792569582" style="stroke: rgb(105, 191, 139);"></path><path d="M5,375.62095596537114C426,375.62095596537114,426,241.7702088090022,847,241.7702088090022" stroke-width="5.635068340555367" style="stroke: rgb(105, 139, 191);"></path><path d="M5,367.7230579762952C426,367.7230579762952,426,132.35981237065303,847,132.35981237065303" stroke-width="10.160727637596553" style="stroke: rgb(105, 139, 191);"></path><path d="M5,379.65617462416475C426,379.65617462416475,426,380.9341598150256,847,380.9341598150256" stroke-width="2.435368977031786" style="stroke: rgb(105, 139, 191);"></path><path d="M5,381.43692955634026C426,381.43692955634026,426,510.4002497637705,847,510.4002497637705" stroke-width="1.126140887319258" style="stroke: rgb(105, 139, 191);"></path><path d="M5,330.2839857365082C426,330.2839857365082,426,87.63721131622552,847,87.63721131622552" stroke-width="14.290142753411754" style="stroke: rgb(174, 105, 191);"></path><path d="M5,339.79405587878006C426,339.79405587878006,426,272.3107340916572,847,272.3107340916572" stroke-width="4.729997531131836" style="stroke: rgb(174, 105, 191);"></path><path d="M5,344.24961165919274C426,344.24961165919274,426,316.03424816580235,847,316.03424816580235" stroke-width="4.1811140296935445" style="stroke: rgb(174, 105, 191);"></path><path d="M5,347.8045392396962C426,347.8045392396962,426,342.96394232250697,847,342.96394232250697" stroke-width="2.928741131313324" style="stroke: rgb(174, 105, 191);"></path><path d="M5,350.1436811032028C426,350.1436811032028,426,441.3873296424296,847,441.3873296424296" stroke-width="1.749542595699996" style="stroke: rgb(174, 105, 191);"></path><path d="M5,351.8305732792749C426,351.8305732792749,426,464.75747572392595,847,464.75747572392595" stroke-width="1.6242417564440956" style="stroke: rgb(174, 105, 191);"></path></g><g class="nodes" font-family="Arial, Helvetica" font-size="10"><g><rect x="0" y="235.53382474829152" height="37.315761366873176" width="5" fill="#000"></rect><text x="11" y="254.1917054317281" dy="0.35em" text-anchor="start">Africa</text></g><g><rect x="0" y="140.00000000000006" height="85.53382474829147" width="5" fill="#000"></rect><text x="11" y="182.7669123741458" dy="0.35em" text-anchor="start">Asia</text></g><g><rect x="0" y="282.8495861151647" height="30.28932824463766" width="5" fill="#000"></rect><text x="11" y="297.9942502374835" dy="0.35em" text-anchor="start">Europe</text></g><g><rect x="0" y="362.6426941574969" height="19.357305842503024" width="5" fill="#000"></rect><text x="11" y="372.32134707874843" dy="0.35em" text-anchor="start">North America</text></g><g><rect x="0" y="323.13891435980236" height="29.50377979769457" width="5" fill="#000"></rect><text x="11" y="337.89080425864967" dy="0.35em" text-anchor="start">South America</text></g><g><rect x="847" y="367.1787529657105" height="2.5377223607992505" width="5" fill="#000"></rect><text x="841" y="368.44761414611014" dy="0.35em" text-anchor="end">Angola</text></g><g><rect x="847" y="463.9453548457039" height="1.6242417564440927" width="5" fill="#000"></rect><text x="841" y="464.75747572392595" dy="0.35em" text-anchor="end">Argentina</text></g><g><rect x="847" y="520.9633202074301" height="1.0366797925696005" width="5" fill="#000"></rect><text x="841" y="521.481660103715" dy="0.35em" text-anchor="end">Belarus</text></g><g><rect x="847" y="80.49213993951965" height="14.290142753411738" width="5" fill="#000"></rect><text x="841" y="87.63721131622552" dy="0.35em" text-anchor="end">Brazil</text></g><g><rect x="847" y="379.71647532650974" height="2.4353689770317715" width="5" fill="#000"></rect><text x="841" y="380.9341598150256" dy="0.35em" text-anchor="end">Canada</text></g><g><rect x="847" y="341.4995717568503" height="2.9287411313133305" width="5" fill="#000"></rect><text x="841" y="342.96394232250697" dy="0.35em" text-anchor="end">Chile</text></g><g><rect x="847" y="1.1368683772161603e-13" height="44.94762580477875" width="5" fill="#000"></rect><text x="841" y="22.47381290238949" dy="0.35em" text-anchor="end">China</text></g><g><rect x="847" y="313.9436911509556" height="4.181114029693532" width="5" fill="#000"></rect><text x="841" y="316.03424816580235" dy="0.35em" text-anchor="end">Colombia</text></g><g><rect x="847" y="509.83717932011086" height="1.1261408873192522" width="5" fill="#000"></rect><text x="841" y="510.4002497637705" dy="0.35em" text-anchor="end">Cuba</text></g><g><rect x="847" y="284.6757328572231" height="4.655327231021829" width="5" fill="#000"></rect><text x="841" y="287.00339647273404" dy="0.35em" text-anchor="end">Democratic Republic of the Congo</text></g><g><rect x="847" y="186.12413898982962" height="8.183250563281376" width="5" fill="#000"></rect><text x="841" y="190.2157642714703" dy="0.35em" text-anchor="end">Egypt</text></g><g><rect x="847" y="498.6452443112072" height="1.1919350089036698" width="5" fill="#000"></rect><text x="841" y="499.241211815659" dy="0.35em" text-anchor="end">France</text></g><g><rect x="847" y="428.61821879908956" height="1.8943395454900838" width="5" fill="#000"></rect><text x="841" y="429.5653885718346" dy="0.35em" text-anchor="end">Germany</text></g><g><rect x="847" y="54.947625804778866" height="15.54451413474078" width="5" fill="#000"></rect><text x="841" y="62.719882872149256" dy="0.35em" text-anchor="end">India</text></g><g><rect x="847" y="254.58774297927985" height="5.357992346811443" width="5" fill="#000"></rect><text x="841" y="257.26673915268555" dy="0.35em" text-anchor="end">Indonesia</text></g><g><rect x="847" y="487.1168473081924" height="1.5283970030147884" width="5" fill="#000"></rect><text x="841" y="487.8810458096998" dy="0.35em" text-anchor="end">Italy</text></g><g><rect x="847" y="404.47288229397003" height="2.193651453960001" width="5" fill="#000"></rect><text x="841" y="405.56970802095003" dy="0.35em" text-anchor="end">Ivory Coast</text></g><g><rect x="847" y="221.7661480356874" height="7.186526603037123" width="5" fill="#000"></rect><text x="841" y="225.35941133720596" dy="0.35em" text-anchor="end">Japan</text></g><g><rect x="847" y="238.95267463872452" height="5.6350683405553355" width="5" fill="#000"></rect><text x="841" y="241.77020880900218" dy="0.35em" text-anchor="end">Mexico</text></g><g><rect x="847" y="147.4401761894513" height="9.34788006247453" width="5" fill="#000"></rect><text x="841" y="152.11411622068857" dy="0.35em" text-anchor="end">Nigeria</text></g><g><rect x="847" y="104.78228269293137" height="12.497165858923381" width="5" fill="#000"></rect><text x="841" y="111.03086562239307" dy="0.35em" text-anchor="end">Pakistan</text></g><g><rect x="847" y="269.94573532609127" height="4.729997531131836" width="5" fill="#000"></rect><text x="841" y="272.3107340916572" dy="0.35em" text-anchor="end">Peru</text></g><g><rect x="847" y="166.78805625192584" height="9.33608273790378" width="5" fill="#000"></rect><text x="841" y="171.45609762087773" dy="0.35em" text-anchor="end">Russia</text></g><g><rect x="847" y="328.1248051806491" height="3.374766576201182" width="5" fill="#000"></rect><text x="841" y="329.8121884687497" dy="0.35em" text-anchor="end">Somalia</text></g><g><rect x="847" y="416.66653374793003" height="1.9516850511595294" width="5" fill="#000"></rect><text x="841" y="417.6423762735098" dy="0.35em" text-anchor="end">South Africa</text></g><g><rect x="847" y="452.2621009402796" height="1.6832539054242943" width="5" fill="#000"></rect><text x="841" y="453.10372789299174" dy="0.35em" text-anchor="end">Spain</text></g><g><rect x="847" y="354.42831288816365" height="2.750440077546841" width="5" fill="#000"></rect><text x="841" y="355.80353292693707" dy="0.35em" text-anchor="end">Sudan</text></g><g><rect x="847" y="392.1518443035415" height="2.321037990428522" width="5" fill="#000"></rect><text x="841" y="393.31236329875577" dy="0.35em" text-anchor="end">Tanzania</text></g><g><rect x="847" y="204.307389553111" height="7.4587584825764" width="5" fill="#000"></rect><text x="841" y="208.0367687943992" dy="0.35em" text-anchor="end">Turkey</text></g><g><rect x="847" y="475.56959660214795" height="1.5472507060444514" width="5" fill="#000"></rect><text x="841" y="476.3432219551702" dy="0.35em" text-anchor="end">Ukraine</text></g><g><rect x="847" y="299.33106008824495" height="4.612631062710648" width="5" fill="#000"></rect><text x="841" y="301.6373756196003" dy="0.35em" text-anchor="end">United Kingdom</text></g><g><rect x="847" y="127.27944855185476" height="10.160727637596551" width="5" fill="#000"></rect><text x="841" y="132.35981237065303" dy="0.35em" text-anchor="end">United States</text></g><g><rect x="847" y="440.51255834457965" height="1.7495425956999497" width="5" fill="#000"></rect><text x="841" y="441.3873296424296" dy="0.35em" text-anchor="end">Venezuela</text></g></g></g></svg>