<svg width="851" height="2020" xmlns="http://www.w3.org/2000/svg" version="1.1"><g transform="translate(0, 10)"><g class="links" fill="none" stroke-opacity="2"><path d="M7,1097.67243422612C425.5,1097.67243422612,425.5,201.77530220431356,844,201.77530220431356" stroke-width="4.09575728845698" style="stroke: rgb(191, 105, 105);"></path><path d="M7,1106.1175634036504C425.5,1106.1175634036504,425.5,1325.2547997155718,844,1325.2547997155718" stroke-width="1.5122066840483526" style="stroke: rgb(191, 105, 105);"></path><path d="M7,1104.1242000474047C425.5,1104.1242000474047,425.5,823.2329936003796,844,823.2329936003796" stroke-width="2.474520028442759" style="stroke: rgb(191, 105, 105);"></path><path d="M7,1108.0895946906853C425.5,1108.0895946906853,425.5,1979.717942640436,844,1979.717942640436" stroke-width="0.19435885280872245" style="stroke: rgb(191, 105, 105);"></path><path d="M7,1101.3036264517657C425.5,1101.3036264517657,425.5,515.472860867504,844,515.472860867504" stroke-width="3.166627162834795" style="stroke: rgb(191, 105, 105);"></path><path d="M7,1107.3050485897134C425.5,1107.3050485897134,425.5,1696.20052145058,844,1696.20052145058" stroke-width="0.8627636880777435" style="stroke: rgb(191, 105, 105);"></path><path d="M7,1107.8644228490166C425.5,1107.8644228490166,425.5,1969.4927707987672,844,1969.4927707987672" stroke-width="0.25598483052856125" style="stroke: rgb(191, 105, 105);"></path><path d="M7,1150.26783598009C425.5,1150.26783598009,425.5,748.1962550367388,844,748.1962550367388" stroke-width="2.550367385636407" style="stroke: rgb(191, 126, 105);"></path><path d="M7,1142.799241526428C425.5,1142.799241526428,425.5,70.86750414790272,844,70.86750414790272" stroke-width="5.001185114956151" style="stroke: rgb(191, 126, 105);"></path><path d="M7,1147.146243185589C425.5,1147.146243185589,425.5,326.95662479260466,844,326.95662479260466" stroke-width="3.6928182033657264" style="stroke: rgb(191, 126, 105);"></path><path d="M7,909.0661294145535C425.5,909.0661294145535,425.5,1139.1016828632369,844,1139.1016828632369" stroke-width="1.7966342735245318" style="stroke: rgb(191, 146, 105);"></path><path d="M7,907.1652050248878C425.5,907.1652050248878,425.5,1043.8658449869633,844,1043.8658449869633" stroke-width="2.0052145058070634" style="stroke: rgb(191, 146, 105);"></path><path d="M7,910.7537331121123C425.5,910.7537331121123,425.5,1267.5278502014687,844,1267.5278502014687" stroke-width="1.5785731215927945" style="stroke: rgb(191, 146, 105);"></path><path d="M7,902.8016117563408C425.5,902.8016117563408,425.5,810.7584735719369,844,810.7584735719369" stroke-width="2.474520028442759" style="stroke: rgb(191, 146, 105);"></path><path d="M7,905.1007347712731C425.5,905.1007347712731,425.5,995.5107845461002,844,995.5107845461002" stroke-width="2.123726001422138" style="stroke: rgb(191, 146, 105);"></path><path d="M7,896.4873192699696C425.5,896.4873192699696,425.5,408.6655605593737,844,408.6655605593737" stroke-width="3.479497511258592" style="stroke: rgb(191, 146, 105);"></path><path d="M7,899.8957098838591C425.5,899.8957098838591,425.5,448.9476179189377,844,448.9476179189377" stroke-width="3.3372837165205023" style="stroke: rgb(191, 146, 105);"></path><path d="M7,850.9291301256225C425.5,850.9291301256225,425.5,173.24958520976512,844,173.24958520976512" stroke-width="4.337520739511732" style="stroke: rgb(191, 167, 105);"></path><path d="M7,846.0488267361937C425.5,846.0488267361937,425.5,55.655368570751726,844,55.655368570751726" stroke-width="5.423086039345816" style="stroke: rgb(191, 167, 105);"></path><path d="M7,840.5451528798296C425.5,840.5451528798296,425.5,24.61957809907595,844,24.61957809907595" stroke-width="5.584261673382318" style="stroke: rgb(191, 167, 105);"></path><path d="M7,856.1436359326858C425.5,856.1436359326858,425.5,1462.1877222090536,844,1462.1877222090536" stroke-width="1.3225882910642333" style="stroke: rgb(191, 167, 105);"></path><path d="M7,854.290116141266C425.5,854.290116141266,425.5,885.3756814410999,844,885.3756814410999" stroke-width="2.384451291775302" style="stroke: rgb(191, 167, 105);"></path><path d="M7,857.0466935292727C425.5,857.0466935292727,425.5,1813.8611045271387,844,1813.8611045271387" stroke-width="0.4835269021095046" style="stroke: rgb(191, 167, 105);"></path><path d="M7,1269.5899502251714C425.5,1269.5899502251714,425.5,1845.2832424745197,844,1845.2832424745197" stroke-width="0.4550841431618867" style="stroke: rgb(191, 187, 105);"></path><path d="M7,1266.9163308840955C425.5,1266.9163308840955,425.5,785.7715098364542,844,785.7715098364542" stroke-width="2.502962787390377" style="stroke: rgb(191, 187, 105);"></path><path d="M7,1268.7651102156906C425.5,1268.7651102156906,425.5,1563.4676463616963,844,1563.4676463616963" stroke-width="1.1945958757999526" style="stroke: rgb(191, 187, 105);"></path><path d="M7,1263.863474757051C425.5,1263.863474757051,425.5,381.5501303626447,844,381.5501303626447" stroke-width="3.6027494666982696" style="stroke: rgb(191, 187, 105);"></path><path d="M7,1008.7342972268312C425.5,1008.7342972268312,425.5,910.1256221853522,844,910.1256221853522" stroke-width="2.3465276131784782" style="stroke: rgb(174, 191, 105);"></path><path d="M7,1013.0741881962554C425.5,1013.0741881962554,425.5,1728.6940033183214,844,1728.6940033183214" stroke-width="0.8058781701825077" style="stroke: rgb(174, 191, 105);"></path><path d="M7,1013.6596349845938C425.5,1013.6596349845938,425.5,1897.3097890495374,844,1897.3097890495374" stroke-width="0.36501540649442993" style="stroke: rgb(174, 191, 105);"></path><path d="M7,1010.6612941455323C425.5,1010.6612941455323,425.5,1348.276842853756,844,1348.276842853756" stroke-width="1.5074662242237498" style="stroke: rgb(174, 191, 105);"></path><path d="M7,1003.7473334913489C425.5,1003.7473334913489,425.5,684.6172078691635,844,684.6172078691635" stroke-width="2.782649917041953" style="stroke: rgb(174, 191, 105);"></path><path d="M7,1012.0431381844041C425.5,1012.0431381844041,425.5,1496.1128229438248,844,1496.1128229438248" stroke-width="1.2562218535197913" style="stroke: rgb(174, 191, 105);"></path><path d="M7,1000.8769850675517C425.5,1000.8769850675517,425.5,658.945247689026,844,658.945247689026" stroke-width="2.9580469305522636" style="stroke: rgb(174, 191, 105);"></path><path d="M7,1006.3498459350559C425.5,1006.3498459350559,425.5,848.1464802085804,844,848.1464802085804" stroke-width="2.4223749703721262" style="stroke: rgb(174, 191, 105);"></path><path d="M7,1296.8215216876033C425.5,1296.8215216876033,425.5,1115.4704906375912,844,1115.4704906375912" stroke-width="1.8250770324721497" style="stroke: rgb(153, 191, 105);"></path><path d="M7,1298.6181559611277C425.5,1298.6181559611277,425.5,1150.8840957572875,844,1150.8840957572875" stroke-width="1.768191514576914" style="stroke: rgb(153, 191, 105);"></path><path d="M7,1299.9241526428061C425.5,1299.9241526428061,425.5,1989.8909694240338,844,1989.8909694240338" stroke-width="0.15169471438729557" style="stroke: rgb(153, 191, 105);"></path><path d="M7,1299.6752785020144C425.5,1299.6752785020144,425.5,1918.0255984830526,844,1918.0255984830526" stroke-width="0.346053567196018" style="stroke: rgb(153, 191, 105);"></path><path d="M7,1172.0715809433518C425.5,1172.0715809433518,425.5,1938.658449869637,844,1938.658449869637" stroke-width="0.30338942877459113" style="stroke: rgb(132, 191, 105);"></path><path d="M7,1168.7982934344634C425.5,1168.7982934344634,425.5,1552.270680255984,844,1552.270680255984" stroke-width="1.1993363356245557" style="stroke: rgb(132, 191, 105);"></path><path d="M7,1171.0286797819392C425.5,1171.0286797819392,425.5,1641.3842142687834,844,1641.3842142687834" stroke-width="1.061863000711069" style="stroke: rgb(132, 191, 105);"></path><path d="M7,1171.7397487556298C425.5,1171.7397487556298,425.5,1907.6724342261195,844,1907.6724342261195" stroke-width="0.36027494666982696" style="stroke: rgb(132, 191, 105);"></path><path d="M7,1169.9478549419296C425.5,1169.9478549419296,425.5,1619.2225645887645,844,1619.2225645887645" stroke-width="1.0997866793078928" style="stroke: rgb(132, 191, 105);"></path><path d="M7,1162.931974401517C425.5,1162.931974401517,425.5,697.3974875562932,844,697.3974875562932" stroke-width="2.77790945721735" style="stroke: rgb(132, 191, 105);"></path><path d="M7,1167.5088883621713C425.5,1167.5088883621713,425.5,1394.0436122303854,844,1394.0436122303854" stroke-width="1.3794738089594691" style="stroke: rgb(132, 191, 105);"></path><path d="M7,1165.5700402939085C425.5,1165.5700402939085,425.5,798.2721023939325,844,798.2721023939325" stroke-width="2.498222327565774" style="stroke: rgb(132, 191, 105);"></path><path d="M7,1205.837876273998C425.5,1205.837876273998,425.5,1031.820336572647,844,1031.820336572647" stroke-width="2.085802322825314" style="stroke: rgb(112, 191, 105);"></path><path d="M7,1207.8644228490157C425.5,1207.8644228490157,425.5,1079.8293434463137,844,1079.8293434463137" stroke-width="1.9672908272102394" style="stroke: rgb(112, 191, 105);"></path><path d="M7,1212.7233941692336C425.5,1212.7233941692336,425.5,1948.94998814885,844,1948.94998814885" stroke-width="0.2796871296515762" style="stroke: rgb(112, 191, 105);"></path><path d="M7,1211.1234889784305C425.5,1211.1234889784305,425.5,1585.8141739748748,844,1585.8141739748748" stroke-width="1.1661531168523347" style="stroke: rgb(112, 191, 105);"></path><path d="M7,1203.6951884332777C425.5,1203.6951884332777,425.5,946.8878881251478,844,946.8878881251478" stroke-width="2.1995733586157855" style="stroke: rgb(112, 191, 105);"></path><path d="M7,1209.6942403413125C425.5,1209.6942403413125,425.5,1186.0654183455786,844,1186.0654183455786" stroke-width="1.692344157383266" style="stroke: rgb(112, 191, 105);"></path><path d="M7,1212.1450580706323C425.5,1212.1450580706323,425.5,1685.3306470727655,844,1685.3306470727655" stroke-width="0.8769850675515525" style="stroke: rgb(112, 191, 105);"></path><path d="M7,1244.0459824602983C425.5,1244.0459824602983,425.5,594.0365015406497,844,594.0365015406497" stroke-width="3.0054515287982935" style="stroke: rgb(105, 191, 119);"></path><path d="M7,1246.9115904242708C425.5,1246.9115904242708,425.5,710.1493244844753,844,710.1493244844753" stroke-width="2.7257643991467173" style="stroke: rgb(105, 191, 119);"></path><path d="M7,1251.8511495615073C425.5,1251.8511495615073,425.5,1866.1483763925098,844,1866.1483763925098" stroke-width="0.4219009243896658" style="stroke: rgb(105, 191, 119);"></path><path d="M7,1251.3439203602748C425.5,1251.3439203602748,425.5,1782.237497037212,844,1782.237497037212" stroke-width="0.5925574780753733" style="stroke: rgb(105, 191, 119);"></path><path d="M7,1249.0400568855177C425.5,1249.0400568855177,425.5,1313.733112111874,844,1313.733112111874" stroke-width="1.5311685233467647" style="stroke: rgb(105, 191, 119);"></path><path d="M7,1250.4266413842142C425.5,1250.4266413842142,425.5,1518.6086750414781,844,1518.6086750414781" stroke-width="1.2420004740459825" style="stroke: rgb(105, 191, 119);"></path><path d="M7,937.5657738800667C425.5,937.5657738800667,425.5,1674.4323299360033,844,1674.4323299360033" stroke-width="0.9196492059729794" style="stroke: rgb(105, 191, 139);"></path><path d="M7,923.7781464802089C425.5,923.7781464802089,425.5,144.40862763688048,844,144.40862763688048" stroke-width="4.470253614600616" style="stroke: rgb(105, 191, 139);"></path><path d="M7,927.8288694003322C425.5,927.8288694003322,425.5,367.93315951647276,844,367.93315951647276" stroke-width="3.6311922256458877" style="stroke: rgb(105, 191, 139);"></path><path d="M7,933.8682152168765C425.5,933.8682152168765,425.5,922.4223749703722,844,922.4223749703722" stroke-width="2.2469779568618153" style="stroke: rgb(105, 191, 139);"></path><path d="M7,931.1945958758004C425.5,931.1945958758004,425.5,554.8874140791656,844,554.8874140791656" stroke-width="3.100260725290353" style="stroke: rgb(105, 191, 139);"></path><path d="M7,936.0488267361937C425.5,936.0488267361937,425.5,1007.6297700876978,844,1007.6297700876978" stroke-width="2.114245081772932" style="stroke: rgb(105, 191, 139);"></path><path d="M7,1025.205024887414C425.5,1025.205024887414,425.5,722.8750888836221,844,722.8750888836221" stroke-width="2.7257643991467173" style="stroke: rgb(105, 191, 160);"></path><path d="M7,1027.8004266413843C425.5,1027.8004266413843,425.5,835.7027731689976,844,835.7027731689976" stroke-width="2.465039108793553" style="stroke: rgb(105, 191, 160);"></path><path d="M7,1030.0260725290354C425.5,1030.0260725290354,425.5,1067.8525716994545,844,1067.8525716994545" stroke-width="1.9862526665086513" style="stroke: rgb(105, 191, 160);"></path><path d="M7,1033.4605356719603C425.5,1033.4605356719603,425.5,1279.1040530931493,844,1279.1040530931493" stroke-width="1.5738326617681915" style="stroke: rgb(105, 191, 160);"></path><path d="M7,1037.3121592794498C425.5,1037.3121592794498,425.5,1596.9779568618146,844,1596.9779568618146" stroke-width="1.1614126570277317" style="stroke: rgb(105, 191, 160);"></path><path d="M7,1036.14837639251C425.5,1036.14837639251,425.5,1574.6480208580224,844,1574.6480208580224" stroke-width="1.1661531168523347" style="stroke: rgb(105, 191, 160);"></path><path d="M7,1031.8464091016829C425.5,1031.8464091016829,425.5,1209.4216639013978,844,1209.4216639013978" stroke-width="1.6544204787864423" style="stroke: rgb(105, 191, 160);"></path><path d="M7,1034.9063759184642C425.5,1034.9063759184642,425.5,1484.8257881014451,844,1484.8257881014451" stroke-width="1.3178478312396302" style="stroke: rgb(105, 191, 160);"></path><path d="M7,795.5724105238211C425.5,795.5724105238211,425.5,1529.8411945958744,844,1529.8411945958744" stroke-width="1.2230386347475706" style="stroke: rgb(105, 191, 180);"></path><path d="M7,777.1557241052385C425.5,777.1557241052385,425.5,115.2666508651338,844,115.2666508651338" stroke-width="4.617207869163309" style="stroke: rgb(105, 191, 180);"></path><path d="M7,796.7124911116381C425.5,796.7124911116381,425.5,1652.4437070395823,844,1652.4437070395823" stroke-width="1.057122540886466" style="stroke: rgb(105, 191, 180);"></path><path d="M7,791.3960654183459C425.5,791.3960654183459,425.5,1174.3659634984585,844,1174.3659634984585" stroke-width="1.7065655368570751" style="stroke: rgb(105, 191, 180);"></path><path d="M7,797.4543730741884C425.5,797.4543730741884,425.5,1855.7241052382078,844,1855.7241052382078" stroke-width="0.4266413842142688" style="stroke: rgb(105, 191, 180);"></path><path d="M7,789.3505570040296C425.5,789.3505570040296,425.5,897.7601327328753,844,897.7601327328753" stroke-width="2.384451291775302" style="stroke: rgb(105, 191, 180);"></path><path d="M7,794.3019672908274C425.5,794.3019672908274,425.5,1473.5079402702056,844,1473.5079402702056" stroke-width="1.3178478312396302" style="stroke: rgb(105, 191, 180);"></path><path d="M7,781.7634510547525C425.5,781.7634510547525,425.5,129.87437781464777,844,129.87437781464777" stroke-width="4.598246029864897" style="stroke: rgb(105, 191, 180);"></path><path d="M7,792.9461957809909C425.5,792.9461957809909,425.5,1382.6570277316891,844,1382.6570277316891" stroke-width="1.393695188433278" style="stroke: rgb(105, 191, 180);"></path><path d="M7,786.1104527139134C425.5,786.1104527139134,425.5,215.87105949277054,844,215.87105949277054" stroke-width="4.09575728845698" style="stroke: rgb(105, 191, 180);"></path><path d="M7,797.805167101209C425.5,797.805167101209,425.5,1959.2273050485894,844,1959.2273050485894" stroke-width="0.2749466698269732" style="stroke: rgb(105, 191, 180);"></path><path d="M7,1084.5200284427592C425.5,1084.5200284427592,425.5,1717.8786442284895,844,1717.8786442284895" stroke-width="0.8248400094809196" style="stroke: rgb(105, 180, 191);"></path><path d="M7,1073.756814410998C425.5,1073.756814410998,425.5,313.24958520976526,844,313.24958520976526" stroke-width="3.721260962313344" style="stroke: rgb(105, 180, 191);"></path><path d="M7,1077.10594927708C425.5,1077.10594927708,425.5,633.0149324484477,844,633.0149324484477" stroke-width="2.9770087698506753" style="stroke: rgb(105, 180, 191);"></path><path d="M7,1082.2114245081775C425.5,1082.2114245081775,425.5,1232.7091727897598,844,1232.7091727897598" stroke-width="1.6307181796634274" style="stroke: rgb(105, 180, 191);"></path><path d="M7,1085.278502014696C425.5,1085.278502014696,425.5,1760.9457217350077,844,1760.9457217350077" stroke-width="0.692107134392036" style="stroke: rgb(105, 180, 191);"></path><path d="M7,1079.9952595401755C425.5,1079.9952595401755,425.5,671.8250770324723,844,671.8250770324723" stroke-width="2.801611756340365" style="stroke: rgb(105, 180, 191);"></path><path d="M7,1083.567196018014C425.5,1083.567196018014,425.5,1630.312870348423,844,1630.312870348423" stroke-width="1.0808248400094809" style="stroke: rgb(105, 180, 191);"></path><path d="M7,1124.7831239630243C425.5,1124.7831239630243,425.5,983.3846883147659,844,983.3846883147659" stroke-width="2.1284664612467408" style="stroke: rgb(105, 160, 191);"></path><path d="M7,1130.2820573595636C425.5,1130.2820573595636,425.5,1999.9834083906135,844,1999.9834083906135" stroke-width="0.033183218772220906" style="stroke: rgb(105, 160, 191);"></path><path d="M7,1120.952832424745C425.5,1120.952832424745,425.5,40.17776724342298,844,40.17776724342298" stroke-width="5.532116615311685" style="stroke: rgb(105, 160, 191);"></path><path d="M7,1130.071106897369C425.5,1130.071106897369,425.5,1876.553685707513,844,1876.553685707513" stroke-width="0.3887177056174449" style="stroke: rgb(105, 160, 191);"></path><path d="M7,1126.8428537568143C425.5,1126.8428537568143,425.5,1055.8639488030335,844,1055.8639488030335" stroke-width="1.9909931263332543" style="stroke: rgb(105, 160, 191);"></path><path d="M7,1129.4809196492058C425.5,1129.4809196492058,425.5,1739.492770798767,844,1739.492770798767" stroke-width="0.7916567907086988" style="stroke: rgb(105, 160, 191);"></path><path d="M7,1128.4617207869162C425.5,1128.4617207869162,425.5,1507.3643043375198,844,1507.3643043375198" stroke-width="1.2467409338705855" style="stroke: rgb(105, 160, 191);"></path><path d="M7,729.7819388480684C425.5,729.7819388480684,425.5,1541.0618630007098,844,1541.0618630007098" stroke-width="1.2182981749229675" style="stroke: rgb(105, 139, 191);"></path><path d="M7,718.4190566484951C425.5,718.4190566484951,425.5,187.57288456980302,844,187.57288456980302" stroke-width="4.309077980564115" style="stroke: rgb(105, 139, 191);"></path><path d="M7,722.5195543967767C425.5,722.5195543967767,425.5,271.81085565299804,844,271.81085565299804" stroke-width="3.891917515999052" style="stroke: rgb(105, 139, 191);"></path><path d="M7,714.0459824602989C425.5,714.0459824602989,425.5,158.86228964209505,844,158.86228964209505" stroke-width="4.437070395828395" style="stroke: rgb(105, 139, 191);"></path><path d="M7,725.9469068499646C425.5,725.9469068499646,425.5,645.9848305285615,844,645.9848305285615" stroke-width="2.9627873903768664" style="stroke: rgb(105, 139, 191);"></path><path d="M7,705.9137236311924C425.5,705.9137236311924,425.5,5.91372363119268,844,5.91372363119268" stroke-width="11.827447262384451" style="stroke: rgb(105, 139, 191);"></path><path d="M7,728.3005451528801C425.5,728.3005451528801,425.5,1162.640436122303,844,1162.640436122303" stroke-width="1.744489215453899" style="stroke: rgb(105, 139, 191);"></path><path d="M7,1282.1900924389665C425.5,1282.1900924389665,425.5,1336.7670063996202,844,1336.7670063996202" stroke-width="1.5122066840483526" style="stroke: rgb(105, 119, 191);"></path><path d="M7,1285.7193647783836C425.5,1285.7193647783836,425.5,1886.937662953306,844,1886.937662953306" stroke-width="0.3792367859682389" style="stroke: rgb(105, 119, 191);"></path><path d="M7,1280.6257406968473C425.5,1280.6257406968473,425.5,1244.3327802796864,844,1244.3327802796864" stroke-width="1.6164968001896183" style="stroke: rgb(105, 119, 191);"></path><path d="M7,1284.560322351268C425.5,1284.560322351268,425.5,1663.472386821521,844,1663.472386821521" stroke-width="1.00023702299123" style="stroke: rgb(105, 119, 191);"></path><path d="M7,1283.5031998103814C425.5,1283.5031998103814,425.5,1608.1156672197196,844,1608.1156672197196" stroke-width="1.1140080587817018" style="stroke: rgb(105, 119, 191);"></path><path d="M7,1285.2950936240816C425.5,1285.2950936240816,425.5,1834.821047641621,844,1834.821047641621" stroke-width="0.46930552263569564" style="stroke: rgb(105, 119, 191);"></path><path d="M7,1224.0744252192458C425.5,1224.0744252192458,425.5,860.5688551789526,844,860.5688551789526" stroke-width="2.4223749703721262" style="stroke: rgb(112, 105, 191);"></path><path d="M7,1230.5475231097412C425.5,1230.5475231097412,425.5,1439.525954017539,844,1439.525954017539" stroke-width="1.355771509836454" style="stroke: rgb(112, 105, 191);"></path><path d="M7,1231.6425693292244C425.5,1231.6425693292244,425.5,1707.049063759184,844,1707.049063759184" stroke-width="0.8343209291301256" style="stroke: rgb(112, 105, 191);"></path><path d="M7,1226.127044323299C425.5,1226.127044323299,425.5,1197.7530220431374,844,1197.7530220431374" stroke-width="1.6828632377340602" style="stroke: rgb(112, 105, 191);"></path><path d="M7,1232.3014932448443C425.5,1232.3014932448443,425.5,1824.3446314292482,844,1824.3446314292482" stroke-width="0.4835269021095046" style="stroke: rgb(112, 105, 191);"></path><path d="M7,1227.7364304337516C425.5,1227.7364304337516,425.5,1302.199573358615,844,1302.199573358615" stroke-width="1.5359089831713677" style="stroke: rgb(112, 105, 191);"></path><path d="M7,1229.1870111400801C425.5,1229.1870111400801,425.5,1428.165442047878,844,1428.165442047878" stroke-width="1.36525242948566" style="stroke: rgb(112, 105, 191);"></path><path d="M7,1188.2152168760367C425.5,1188.2152168760367,425.5,760.7418819625506,844,760.7418819625506" stroke-width="2.540886465987201" style="stroke: rgb(132, 105, 191);"></path><path d="M7,1184.584024650391C425.5,1184.584024650391,425.5,100.59729793790017,844,100.59729793790017" stroke-width="4.721497985304574" style="stroke: rgb(132, 105, 191);"></path><path d="M7,1190.3081298885988C425.5,1190.3081298885988,425.5,1221.0713439203596,844,1221.0713439203596" stroke-width="1.6449395591372362" style="stroke: rgb(132, 105, 191);"></path><path d="M7,1191.8630007110685C425.5,1191.8630007110685,425.5,1371.2277790945714,844,1371.2277790945714" stroke-width="1.4648020858023227" style="stroke: rgb(132, 105, 191);"></path><path d="M7,953.1571462431859C425.5,953.1571462431859,425.5,541.7800426641384,844,541.7800426641384" stroke-width="3.114482104764162" style="stroke: rgb(153, 105, 191);"></path><path d="M7,949.8127518369284C425.5,949.8127518369284,425.5,395.1386584498692,844,395.1386584498692" stroke-width="3.574306707750652" style="stroke: rgb(153, 105, 191);"></path><path d="M7,956.2289642095287C425.5,956.2289642095287,425.5,581.0191988622896,844,581.0191988622896" stroke-width="3.0291538279213084" style="stroke: rgb(153, 105, 191);"></path><path d="M7,958.8409575728849C425.5,958.8409575728849,425.5,959.0850912538515,844,959.0850912538515" stroke-width="2.1948328987911827" style="stroke: rgb(153, 105, 191);"></path><path d="M7,961.0073477127285C425.5,961.0073477127285,425.5,971.2514813936948,844,971.2514813936948" stroke-width="2.137947380895947" style="stroke: rgb(153, 105, 191);"></path><path d="M7,963.1215927945015C425.5,963.1215927945015,425.5,1019.7321640199092,844,1019.7321640199092" stroke-width="2.090542782649917" style="stroke: rgb(153, 105, 191);"></path><path d="M7,884.0602038397727C425.5,884.0602038397727,425.5,1405.4207158094325,844,1405.4207158094325" stroke-width="1.3747333491348661" style="stroke: rgb(174, 105, 191);"></path><path d="M7,882.2517184166867C425.5,882.2517184166867,425.5,934.6669826973216,844,934.6669826973216" stroke-width="2.2422374970372125" style="stroke: rgb(174, 105, 191);"></path><path d="M7,873.3254325669593C425.5,873.3254325669593,425.5,243.9559137236308,844,243.9559137236308" stroke-width="3.9488030338942877" style="stroke: rgb(174, 105, 191);"></path><path d="M7,869.3197440151698C425.5,869.3197440151698,425.5,229.95022517184142,844,229.95022517184142" stroke-width="4.062574069684759" style="stroke: rgb(174, 105, 191);"></path><path d="M7,879.8767480445606C425.5,879.8767480445606,425.5,773.2661768191516,844,773.2661768191516" stroke-width="2.50770324721498" style="stroke: rgb(174, 105, 191);"></path><path d="M7,876.9613652524297C425.5,876.9613652524297,425.5,475.6055937425926,844,475.6055937425926" stroke-width="3.3230623370466934" style="stroke: rgb(174, 105, 191);"></path><path d="M7,1061.2348897843092C425.5,1061.2348897843092,425.5,1450.8651339179894,844,1450.8651339179894" stroke-width="1.3225882910642333" style="stroke: rgb(191, 105, 187);"></path><path d="M7,1058.466461246741C425.5,1058.466461246741,425.5,1359.762977008769,844,1359.762977008769" stroke-width="1.4648020858023227" style="stroke: rgb(191, 105, 187);"></path><path d="M7,1049.6302441336811C425.5,1049.6302441336811,425.5,422.14268784072004,844,422.14268784072004" stroke-width="3.474757051433989" style="stroke: rgb(191, 105, 187);"></path><path d="M7,1056.2005214505807C425.5,1056.2005214505807,425.5,567.9710831950699,844,567.9710831950699" stroke-width="3.067077506518132" style="stroke: rgb(191, 105, 187);"></path><path d="M7,1053.0173026783598C425.5,1053.0173026783598,425.5,502.2398672671246,844,502.2398672671246" stroke-width="3.2993600379236785" style="stroke: rgb(191, 105, 187);"></path><path d="M7,1059.8862289642095C425.5,1059.8862289642095,425.5,1416.7954491585676,844,1416.7954491585676" stroke-width="1.3747333491348661" style="stroke: rgb(191, 105, 187);"></path><path d="M7,984.683574306708C425.5,984.683574306708,425.5,872.9817492296754,844,872.9817492296754" stroke-width="2.403413131073714" style="stroke: rgb(191, 105, 167);"></path><path d="M7,988.5991941218301C425.5,988.5991941218301,425.5,1255.9397961602267,844,1255.9397961602267" stroke-width="1.5975349608912064" style="stroke: rgb(191, 105, 167);"></path><path d="M7,975.8307655842619C425.5,975.8307655842619,425.5,462.28016117563357,844,462.28016117563357" stroke-width="3.3278027968712967" style="stroke: rgb(191, 105, 167);"></path><path d="M7,978.9926522872721C425.5,978.9926522872721,425.5,607.0372126096232,844,607.0372126096232" stroke-width="2.9959706091490874" style="stroke: rgb(191, 105, 167);"></path><path d="M7,981.986252666509C425.5,981.986252666509,425.5,620.03081298886,844,620.03081298886" stroke-width="2.9912301493244846" style="stroke: rgb(191, 105, 167);"></path><path d="M7,986.8428537568147C425.5,986.8428537568147,425.5,1091.7705617444888,844,1091.7705617444888" stroke-width="1.9151457691396065" style="stroke: rgb(191, 105, 167);"></path><path d="M7,810.3768665560563C425.5,810.3768665560563,425.5,85.8023228253144,844,85.8023228253144" stroke-width="4.868452239867267" style="stroke: rgb(191, 105, 146);"></path><path d="M7,827.4283005451531C425.5,827.4283005451531,425.5,1771.616496800189,844,1771.616496800189" stroke-width="0.6494429959706092" style="stroke: rgb(191, 105, 146);"></path><path d="M7,822.0336572647549C425.5,822.0336572647549,425.5,435.57952121355714,844,435.57952121355714" stroke-width="3.3989096942403414" style="stroke: rgb(191, 105, 146);"></path><path d="M7,826.3332543256699C425.5,826.3332543256699,425.5,1290.6612941455314,844,1290.6612941455314" stroke-width="1.5406494429959705" style="stroke: rgb(191, 105, 146);"></path><path d="M7,824.6480208580235C425.5,824.6480208580235,425.5,1103.6430433752068,844,1103.6430433752068" stroke-width="1.8298174922967527" style="stroke: rgb(191, 105, 146);"></path><path d="M7,818.5091253851625C425.5,818.5091253851625,425.5,354.29248637117774,844,354.29248637117774" stroke-width="3.6501540649442994" style="stroke: rgb(191, 105, 146);"></path><path d="M7,814.7475705143402C425.5,814.7475705143402,425.5,285.69329224934785,844,285.69329224934785" stroke-width="3.87295567670064" style="stroke: rgb(191, 105, 146);"></path><path d="M7,759.5804693055227C425.5,759.5804693055227,425.5,735.5795212135579,844,735.5795212135579" stroke-width="2.6831002607252903" style="stroke: rgb(191, 105, 126);"></path><path d="M7,746.2052619104055C425.5,746.2052619104055,425.5,299.5093624081533,844,299.5093624081533" stroke-width="3.7591846409101684" style="stroke: rgb(191, 105, 126);"></path><path d="M7,763.0978904953781C425.5,763.0978904953781,425.5,1750.2441336809666,844,1750.2441336809666" stroke-width="0.711068973690448" style="stroke: rgb(191, 105, 126);"></path><path d="M7,753.4107608438019C425.5,753.4107608438019,425.5,488.92865607963944,844,488.92865607963944" stroke-width="3.3230623370466934" style="stroke: rgb(191, 105, 126);"></path><path d="M7,761.8321877222091C425.5,761.8321877222091,425.5,1127.293197440151,844,1127.293197440151" stroke-width="1.820336572647547" style="stroke: rgb(191, 105, 126);"></path><path d="M7,764.2806352216165C425.5,764.2806352216165,425.5,1803.360986015643,844,1803.360986015643" stroke-width="0.5167101208817255" style="stroke: rgb(191, 105, 126);"></path><path d="M7,742.3583787627401C425.5,742.3583787627401,425.5,257.8976060677883,844,257.8976060677883" stroke-width="3.934581654420479" style="stroke: rgb(191, 105, 126);"></path><path d="M7,756.6556055937427C425.5,756.6556055937427,425.5,528.6394880303388,844,528.6394880303388" stroke-width="3.166627162834795" style="stroke: rgb(191, 105, 126);"></path><path d="M7,749.9170419530695C425.5,749.9170419530695,425.5,340.63522161649655,844,340.63522161649655" stroke-width="3.6643754444181087" style="stroke: rgb(191, 105, 126);"></path><path d="M7,763.7378525716995C425.5,763.7378525716995,425.5,1792.8182033657258,844,1792.8182033657258" stroke-width="0.5688551789523584" style="stroke: rgb(191, 105, 126);"></path><path d="M7,764.693055226357C425.5,764.693055226357,425.5,1928.3526902109502,844,1928.3526902109502" stroke-width="0.3081298885991941" style="stroke: rgb(191, 105, 126);"></path></g><g class="nodes" font-family="Arial, Helvetica" font-size="10"><g><rect x="844" y="199.72742356008507" height="4.09575728845698" width="7" fill="#000"></rect><text x="838" y="201.77530220431356" dy="0.35em" text-anchor="end">Arusha Municipal</text></g><g><rect x="844" y="1324.4986963735475" height="1.5122066840483512" width="7" fill="#000"></rect><text x="838" y="1325.2547997155716" dy="0.35em" text-anchor="end">Arusha Rural</text></g><g><rect x="844" y="1673.9725053330167" height="0.9196492059729735" width="7" fill="#000"></rect><text x="838" y="1674.432329936003" dy="0.35em" text-anchor="end">Babati  Urban</text></g><g><rect x="844" y="142.17350082958018" height="4.470253614600665" width="7" fill="#000"></rect><text x="838" y="144.4086276368805" dy="0.35em" text-anchor="end">Babati Rural</text></g><g><rect x="844" y="859.3576676937665" height="2.4223749703720614" width="7" fill="#000"></rect><text x="838" y="860.5688551789526" dy="0.35em" text-anchor="end">Bagamoyo</text></g><g><rect x="844" y="1138.2033657264747" height="1.7966342735245462" width="7" fill="#000"></rect><text x="838" y="1139.1016828632369" dy="0.35em" text-anchor="end">Bahi</text></g><g><rect x="844" y="1450.2038397724573" height="1.3225882910642213" width="7" fill="#000"></rect><text x="838" y="1450.8651339179894" dy="0.35em" text-anchor="end">Bariadi</text></g><g><rect x="844" y="1359.030575965868" height="1.4648020858023756" width="7" fill="#000"></rect><text x="838" y="1359.7629770087692" dy="0.35em" text-anchor="end">Bariadi  Town Council</text></g><g><rect x="844" y="908.9523583787629" height="2.3465276131782957" width="7" fill="#000"></rect><text x="838" y="910.1256221853521" dy="0.35em" text-anchor="end">Biharamulo</text></g><g><rect x="844" y="1938.5067551552497" height="0.30338942877460795" width="7" fill="#000"></rect><text x="838" y="1938.658449869637" dy="0.35em" text-anchor="end">Buhigwe</text></g><g><rect x="844" y="1728.2910642332301" height="0.8058781701824955" width="7" fill="#000"></rect><text x="838" y="1728.6940033183214" dy="0.35em" text-anchor="end">Bukoba Rural</text></g><g><rect x="844" y="1897.1272813462901" height="0.36501540649442177" width="7" fill="#000"></rect><text x="838" y="1897.3097890495374" dy="0.35em" text-anchor="end">Bukoba Urban</text></g><g><rect x="844" y="171.08082484000926" height="4.337520739511717" width="7" fill="#000"></rect><text x="838" y="173.24958520976512" dy="0.35em" text-anchor="end">Bukombe</text></g><g><rect x="844" y="734.2379710831952" height="2.6831002607252685" width="7" fill="#000"></rect><text x="838" y="735.5795212135579" dy="0.35em" text-anchor="end">Bumbuli</text></g><g><rect x="844" y="721.5122066840487" height="2.7257643991465557" width="7" fill="#000"></rect><text x="838" y="722.875088883622" dy="0.35em" text-anchor="end">Bunda</text></g><g><rect x="844" y="420.405309315003" height="3.474757051433926" width="7" fill="#000"></rect><text x="838" y="422.14268784072" dy="0.35em" text-anchor="end">Busega</text></g><g><rect x="844" y="1529.2296752785007" height="1.2230386347475815" width="7" fill="#000"></rect><text x="838" y="1529.8411945958746" dy="0.35em" text-anchor="end">Busokelo</text></g><g><rect x="844" y="834.4702536146009" height="2.465039108793462" width="7" fill="#000"></rect><text x="838" y="835.7027731689976" dy="0.35em" text-anchor="end">Butiama</text></g><g><rect x="844" y="1042.8632377340598" height="2.005214505807089" width="7" fill="#000"></rect><text x="838" y="1043.8658449869633" dy="0.35em" text-anchor="end">Chamwino</text></g><g><rect x="844" y="52.94382555107882" height="5.423086039345835" width="7" fill="#000"></rect><text x="838" y="55.65536857075173" dy="0.35em" text-anchor="end">Chato</text></g><g><rect x="844" y="1266.7385636406723" height="1.5785731215928536" width="7" fill="#000"></rect><text x="838" y="1267.5278502014687" dy="0.35em" text-anchor="end">Chemba</text></g><g><rect x="844" y="112.95804693055214" height="4.617207869163167" width="7" fill="#000"></rect><text x="838" y="115.26665086513373" dy="0.35em" text-anchor="end">Chunya</text></g><g><rect x="844" y="809.5212135577154" height="2.4745200284427256" width="7" fill="#000"></rect><text x="838" y="810.7584735719367" dy="0.35em" text-anchor="end">Dodoma Urban</text></g><g><rect x="844" y="1717.4662242237491" height="0.8248400094810222" width="7" fill="#000"></rect><text x="838" y="1717.8786442284895" dy="0.35em" text-anchor="end">Gairo</text></g><g><rect x="844" y="21.827447262384794" height="5.584261673382343" width="7" fill="#000"></rect><text x="838" y="24.619578099075966" dy="0.35em" text-anchor="end">Geita</text></g><g><rect x="844" y="1461.5264280635215" height="1.3225882910642213" width="7" fill="#000"></rect><text x="838" y="1462.1877222090536" dy="0.35em" text-anchor="end">Geita  Town Council</text></g><g><rect x="844" y="1030.7774354112344" height="2.0858023228254297" width="7" fill="#000"></rect><text x="838" y="1031.8203365726472" dy="0.35em" text-anchor="end">Hai</text></g><g><rect x="844" y="366.1175634036498" height="3.6311922256458047" width="7" fill="#000"></rect><text x="838" y="367.9331595164727" dy="0.35em" text-anchor="end">Hanang</text></g><g><rect x="844" y="297.62977008769826" height="3.759184640910348" width="7" fill="#000"></rect><text x="838" y="299.50936240815344" dy="0.35em" text-anchor="end">Handeni</text></g><g><rect x="844" y="1749.8885991941213" height="0.7110689736903169" width="7" fill="#000"></rect><text x="838" y="1750.2441336809666" dy="0.35em" text-anchor="end">Handeni  Town Council</text></g><g><rect x="844" y="83.36809670538076" height="4.868452239867111" width="7" fill="#000"></rect><text x="838" y="85.80232282531432" dy="0.35em" text-anchor="end">Igunga</text></g><g><rect x="844" y="871.7800426641386" height="2.4034131310736484" width="7" fill="#000"></rect><text x="838" y="872.9817492296754" dy="0.35em" text-anchor="end">Ikungi</text></g><g><rect x="844" y="746.9210713439205" height="2.5503673856364912" width="7" fill="#000"></rect><text x="838" y="748.1962550367388" dy="0.35em" text-anchor="end">Ilala</text></g><g><rect x="844" y="1651.915145769139" height="1.0571225408864393" width="7" fill="#000"></rect><text x="838" y="1652.443707039582" dy="0.35em" text-anchor="end">Ileje</text></g><g><rect x="844" y="1540.4527139132483" height="1.2182981749233477" width="7" fill="#000"></rect><text x="838" y="1541.06186300071" dy="0.35em" text-anchor="end">Ilemela</text></g><g><rect x="844" y="1255.1410286797811" height="1.5975349608911529" width="7" fill="#000"></rect><text x="838" y="1255.9397961602267" dy="0.35em" text-anchor="end">Iramba</text></g><g><rect x="844" y="1845.0557004029388" height="0.4550841431619119" width="7" fill="#000"></rect><text x="838" y="1845.2832424745197" dy="0.35em" text-anchor="end">Iringa Municipal</text></g><g><rect x="844" y="784.5200284427591" height="2.5029627873905156" width="7" fill="#000"></rect><text x="838" y="785.7715098364544" dy="0.35em" text-anchor="end">Iringa Rural</text></g><g><rect x="844" y="566.4375444418108" height="3.0670775065181033" width="7" fill="#000"></rect><text x="838" y="567.9710831950699" dy="0.35em" text-anchor="end">Itilima</text></g><g><rect x="844" y="1404.7333491348652" height="1.3747333491351128" width="7" fill="#000"></rect><text x="838" y="1405.4207158094327" dy="0.35em" text-anchor="end">Kahama  Town Council</text></g><g><rect x="844" y="1551.6710120881717" height="1.1993363356245936" width="7" fill="#000"></rect><text x="838" y="1552.270680255984" dy="0.35em" text-anchor="end">Kakonko</text></g><g><rect x="844" y="759.471438729557" height="2.540886465987114" width="7" fill="#000"></rect><text x="838" y="760.7418819625506" dy="0.35em" text-anchor="end">Kalambo</text></g><g><rect x="844" y="1771.2917753022036" height="0.6494429959707304" width="7" fill="#000"></rect><text x="838" y="1771.616496800189" dy="0.35em" text-anchor="end">Kaliua</text></g><g><rect x="844" y="1347.5231097416442" height="1.5074662242236627" width="7" fill="#000"></rect><text x="838" y="1348.276842853756" dy="0.35em" text-anchor="end">Karagwe</text></g><g><rect x="844" y="821.9957335861582" height="2.4745200284427256" width="7" fill="#000"></rect><text x="838" y="823.2329936003796" dy="0.35em" text-anchor="end">Karatu</text></g><g><rect x="844" y="1640.8532827684278" height="1.0618630007111278" width="7" fill="#000"></rect><text x="838" y="1641.3842142687834" dy="0.35em" text-anchor="end">Kasulu</text></g><g><rect x="844" y="1907.4922967527846" height="0.3602749466699606" width="7" fill="#000"></rect><text x="838" y="1907.6724342261195" dy="0.35em" text-anchor="end">Kasulu  Town Council</text></g><g><rect x="844" y="1706.631903294619" height="0.8343209291301719" width="7" fill="#000"></rect><text x="838" y="1707.049063759184" dy="0.35em" text-anchor="end">Kibaha  Town Council</text></g><g><rect x="844" y="1438.848068262621" height="1.3557715098364724" width="7" fill="#000"></rect><text x="838" y="1439.525954017539" dy="0.35em" text-anchor="end">Kibaha District Council</text></g><g><rect x="844" y="1618.6726712491106" height="1.0997866793077264" width="7" fill="#000"></rect><text x="838" y="1619.2225645887645" dy="0.35em" text-anchor="end">Kibondo</text></g><g><rect x="844" y="696.0085328276845" height="2.777909457217447" width="7" fill="#000"></rect><text x="838" y="697.3974875562932" dy="0.35em" text-anchor="end">Kigoma Rural</text></g><g><rect x="844" y="1393.3538753259056" height="1.379473808959574" width="7" fill="#000"></rect><text x="838" y="1394.0436122303854" dy="0.35em" text-anchor="end">Kigoma Urban</text></g><g><rect x="844" y="487.26712491111607" height="3.3230623370467356" width="7" fill="#000"></rect><text x="838" y="488.92865607963944" dy="0.35em" text-anchor="end">Kilindi</text></g><g><rect x="844" y="1562.8703484237963" height="1.1945958757999051" width="7" fill="#000"></rect><text x="838" y="1563.467646361696" dy="0.35em" text-anchor="end">Kilolo</text></g><g><rect x="844" y="311.3889547286086" height="3.721260962313181" width="7" fill="#000"></rect><text x="838" y="313.2495852097652" dy="0.35em" text-anchor="end">Kilombero</text></g><g><rect x="844" y="631.5264280635223" height="2.977008769850727" width="7" fill="#000"></rect><text x="838" y="633.0149324484477" dy="0.35em" text-anchor="end">Kilosa</text></g><g><rect x="844" y="592.5337757762505" height="3.005451528798176" width="7" fill="#000"></rect><text x="838" y="594.0365015406496" dy="0.35em" text-anchor="end">Kilwa</text></g><g><rect x="844" y="68.36691159042465" height="5.001185114956115" width="7" fill="#000"></rect><text x="838" y="70.86750414790271" dy="0.35em" text-anchor="end">Kinondoni</text></g><g><rect x="844" y="1196.9115904242703" height="1.6828632377340682" width="7" fill="#000"></rect><text x="838" y="1197.7530220431374" dy="0.35em" text-anchor="end">Kisarawe</text></g><g><rect x="844" y="933.545863948803" height="2.2422374970369674" width="7" fill="#000"></rect><text x="838" y="934.6669826973215" dy="0.35em" text-anchor="end">Kishapu</text></g><g><rect x="844" y="921.2988859919412" height="2.2469779568617696" width="7" fill="#000"></rect><text x="838" y="922.4223749703722" dy="0.35em" text-anchor="end">Kiteto</text></g><g><rect x="844" y="994.4489215453892" height="2.123726001422142" width="7" fill="#000"></rect><text x="838" y="995.5107845461002" dy="0.35em" text-anchor="end">Kondoa</text></g><g><rect x="844" y="406.9258118037444" height="3.4794975112586144" width="7" fill="#000"></rect><text x="838" y="408.6655605593737" dy="0.35em" text-anchor="end">Kongwa</text></g><g><rect x="844" y="1126.3830291538272" height="1.8203365726474203" width="7" fill="#000"></rect><text x="838" y="1127.2931974401508" dy="0.35em" text-anchor="end">Korogwe</text></g><g><rect x="844" y="1803.1026309552021" height="0.5167101208817257" width="7" fill="#000"></rect><text x="838" y="1803.360986015643" dy="0.35em" text-anchor="end">Korogwe  Town Council</text></g><g><rect x="844" y="185.41834557952097" height="4.309077980564098" width="7" fill="#000"></rect><text x="838" y="187.57288456980302" dy="0.35em" text-anchor="end">Kwimba</text></g><g><rect x="844" y="1173.51268073003" height="1.7065655368569423" width="7" fill="#000"></rect><text x="838" y="1174.3659634984585" dy="0.35em" text-anchor="end">Kyela</text></g><g><rect x="844" y="683.2258829106426" height="2.7826499170419083" width="7" fill="#000"></rect><text x="838" y="684.6172078691635" dy="0.35em" text-anchor="end">Kyerwa</text></g><g><rect x="844" y="708.7864422849019" height="2.725764399146783" width="7" fill="#000"></rect><text x="838" y="710.1493244844753" dy="0.35em" text-anchor="end">Lindi Rural</text></g><g><rect x="844" y="1865.937425930315" height="0.4219009243893197" width="7" fill="#000"></rect><text x="838" y="1866.1483763925096" dy="0.35em" text-anchor="end">Lindi Urban</text></g><g><rect x="844" y="1781.9412182981744" height="0.5925574780753777" width="7" fill="#000"></rect><text x="838" y="1782.237497037212" dy="0.35em" text-anchor="end">Liwale</text></g><g><rect x="844" y="1979.6207632140315" height="0.1943588528087048" width="7" fill="#000"></rect><text x="838" y="1979.717942640436" dy="0.35em" text-anchor="end">Longido</text></g><g><rect x="844" y="1336.010903057596" height="1.5122066840483512" width="7" fill="#000"></rect><text x="838" y="1336.7670063996202" dy="0.35em" text-anchor="end">Ludewa</text></g><g><rect x="844" y="255.930315240578" height="3.9345816544205263" width="7" fill="#000"></rect><text x="838" y="257.8976060677883" dy="0.35em" text-anchor="end">Lushoto</text></g><g><rect x="844" y="1824.1028679781934" height="0.4835269021094746" width="7" fill="#000"></rect><text x="838" y="1824.3446314292482" dy="0.35em" text-anchor="end">Mafia</text></g><g><rect x="844" y="269.86489689499854" height="3.891917515999012" width="7" fill="#000"></rect><text x="838" y="271.81085565299804" dy="0.35em" text-anchor="end">Magu</text></g><g><rect x="844" y="1886.748044560322" height="0.37923678596825994" width="7" fill="#000"></rect><text x="838" y="1886.937662953306" dy="0.35em" text-anchor="end">Makambako  Town Council</text></g><g><rect x="844" y="1243.5245318795917" height="1.6164968001894522" width="7" fill="#000"></rect><text x="838" y="1244.3327802796864" dy="0.35em" text-anchor="end">Makete</text></g><g><rect x="844" y="460.6162597771979" height="3.3278027968713104" width="7" fill="#000"></rect><text x="838" y="462.28016117563357" dy="0.35em" text-anchor="end">Manyoni</text></g><g><rect x="844" y="982.3204550841425" height="2.128466461246717" width="7" fill="#000"></rect><text x="838" y="983.3846883147659" dy="0.35em" text-anchor="end">Masasi</text></g><g><rect x="844" y="1999.9668167812274" height="0.03318321877213748" width="7" fill="#000"></rect><text x="838" y="1999.9834083906135" dy="0.35em" text-anchor="end">Masasi  Town Council</text></g><g><rect x="844" y="500.5901872481628" height="3.299360037923691" width="7" fill="#000"></rect><text x="838" y="502.2398672671246" dy="0.35em" text-anchor="end">Maswa</text></g><g><rect x="844" y="1855.5107845461007" height="0.4266413842142356" width="7" fill="#000"></rect><text x="838" y="1855.7241052382078" dy="0.35em" text-anchor="end">Mbarali</text></g><g><rect x="844" y="896.5679070869876" height="2.384451291775349" width="7" fill="#000"></rect><text x="838" y="897.7601327328753" dy="0.35em" text-anchor="end">Mbeya Rural</text></g><g><rect x="844" y="1472.8490163545857" height="1.3178478312395328" width="7" fill="#000"></rect><text x="838" y="1473.5079402702054" dy="0.35em" text-anchor="end">Mbeya Urban</text></g><g><rect x="844" y="540.2228016117563" height="3.1144821047641926" width="7" fill="#000"></rect><text x="838" y="541.7800426641384" dy="0.35em" text-anchor="end">Mbinga</text></g><g><rect x="844" y="884.1834557952122" height="2.3844512917753633" width="7" fill="#000"></rect><text x="838" y="885.3756814410999" dy="0.35em" text-anchor="end">Mbongwe</text></g><g><rect x="844" y="127.57525479971531" height="4.5982460298648675" width="7" fill="#000"></rect><text x="838" y="129.87437781464774" dy="0.35em" text-anchor="end">Mbozi</text></g><g><rect x="844" y="553.3372837165205" height="3.1002607252903545" width="7" fill="#000"></rect><text x="838" y="554.8874140791656" dy="0.35em" text-anchor="end">Mbulu</text></g><g><rect x="844" y="1416.1080824840003" height="1.3747333491348854" width="7" fill="#000"></rect><text x="838" y="1416.7954491585679" dy="0.35em" text-anchor="end">Meatu</text></g><g><rect x="844" y="513.8895472860866" height="3.166627162834857" width="7" fill="#000"></rect><text x="838" y="515.472860867504" dy="0.35em" text-anchor="end">Meru</text></g><g><rect x="844" y="1495.4847120170648" height="1.256221853519719" width="7" fill="#000"></rect><text x="838" y="1496.1128229438245" dy="0.35em" text-anchor="end">Misenyi</text></g><g><rect x="844" y="156.64375444418084" height="4.437070395828414" width="7" fill="#000"></rect><text x="838" y="158.86228964209505" dy="0.35em" text-anchor="end">Misungwi</text></g><g><rect x="844" y="605.5392273050487" height="2.995970609149026" width="7" fill="#000"></rect><text x="838" y="607.0372126096232" dy="0.35em" text-anchor="end">Mkalama</text></g><g><rect x="844" y="527.0561744489214" height="3.166627162834857" width="7" fill="#000"></rect><text x="838" y="528.6394880303388" dy="0.35em" text-anchor="end">Mkinga</text></g><g><rect x="844" y="1301.4316188670293" height="1.535908983171339" width="7" fill="#000"></rect><text x="838" y="1302.199573358615" dy="0.35em" text-anchor="end">Mkuranga</text></g><g><rect x="844" y="1114.5579521213551" height="1.8250770324721088" width="7" fill="#000"></rect><text x="838" y="1115.4704906375912" dy="0.35em" text-anchor="end">Mlele</text></g><g><rect x="844" y="1381.9601801374724" height="1.3936951884331847" width="7" fill="#000"></rect><text x="838" y="1382.6570277316891" dy="0.35em" text-anchor="end">Momba</text></g><g><rect x="844" y="1695.769139606541" height="0.8627636880778482" width="7" fill="#000"></rect><text x="838" y="1696.20052145058" dy="0.35em" text-anchor="end">Monduli</text></g><g><rect x="844" y="1231.8938136999282" height="1.6307181796635177" width="7" fill="#000"></rect><text x="838" y="1232.70917278976" dy="0.35em" text-anchor="end">Morogoro Rural</text></g><g><rect x="844" y="1760.5996681678116" height="0.6921071343920175" width="7" fill="#000"></rect><text x="838" y="1760.9457217350077" dy="0.35em" text-anchor="end">Morogoro Urban</text></g><g><rect x="844" y="1078.8456980327087" height="1.9672908272102632" width="7" fill="#000"></rect><text x="838" y="1079.829343446314" dy="0.35em" text-anchor="end">Moshi Rural</text></g><g><rect x="844" y="1948.8101445840243" height="0.2796871296516201" width="7" fill="#000"></rect><text x="838" y="1948.94998814885" dy="0.35em" text-anchor="end">Moshi Urban</text></g><g><rect x="844" y="1149.999999999999" height="1.7681915145769835" width="7" fill="#000"></rect><text x="838" y="1150.8840957572875" dy="0.35em" text-anchor="end">Mpanda</text></g><g><rect x="844" y="1989.81512206684" height="0.15169471438730397" width="7" fill="#000"></rect><text x="838" y="1989.8909694240338" dy="0.35em" text-anchor="end">Mpanda  Town Council</text></g><g><rect x="844" y="447.27897606067745" height="3.33728371652046" width="7" fill="#000"></rect><text x="838" y="448.9476179189377" dy="0.35em" text-anchor="end">Mpwapwa</text></g><g><rect x="844" y="241.98151220668365" height="3.9488030338943645" width="7" fill="#000"></rect><text x="838" y="243.95591372363083" dy="0.35em" text-anchor="end">Msalala</text></g><g><rect x="844" y="37.41170893576714" height="5.532116615311679" width="7" fill="#000"></rect><text x="838" y="40.17776724342298" dy="0.35em" text-anchor="end">Mtwara Rural</text></g><g><rect x="844" y="1876.3593268547042" height="0.38871770561763697" width="7" fill="#000"></rect><text x="838" y="1876.553685707513" dy="0.35em" text-anchor="end">Mtwara Urban</text></g><g><rect x="844" y="379.7487556292956" height="3.602749466698242" width="7" fill="#000"></rect><text x="838" y="381.5501303626447" dy="0.35em" text-anchor="end">Mufindi</text></g><g><rect x="844" y="338.8030338942875" height="3.664375444418056" width="7" fill="#000"></rect><text x="838" y="340.63522161649655" dy="0.35em" text-anchor="end">Muheza</text></g><g><rect x="844" y="657.4662242237499" height="2.9580469305522" width="7" fill="#000"></rect><text x="838" y="658.945247689026" dy="0.35em" text-anchor="end">Muleba</text></g><g><rect x="844" y="1066.8594453662001" height="1.9862526665085625" width="7" fill="#000"></rect><text x="838" y="1067.8525716994545" dy="0.35em" text-anchor="end">Musoma Rural</text></g><g><rect x="844" y="1278.3171367622651" height="1.5738326617683924" width="7" fill="#000"></rect><text x="838" y="1279.1040530931493" dy="0.35em" text-anchor="end">Musoma Urban</text></g><g><rect x="844" y="670.4242711543021" height="2.801611756340435" width="7" fill="#000"></rect><text x="838" y="671.8250770324723" dy="0.35em" text-anchor="end">Mvomero</text></g><g><rect x="844" y="1585.2310974164486" height="1.1661531168522288" width="7" fill="#000"></rect><text x="838" y="1585.8141739748748" dy="0.35em" text-anchor="end">Mwanga</text></g><g><rect x="844" y="1312.9675278502007" height="1.531168523346878" width="7" fill="#000"></rect><text x="838" y="1313.733112111874" dy="0.35em" text-anchor="end">Nachingwea</text></g><g><rect x="844" y="393.35150509599384" height="3.5743067077505657" width="7" fill="#000"></rect><text x="838" y="395.1386584498691" dy="0.35em" text-anchor="end">Namtumbo</text></g><g><rect x="844" y="1054.8684522398669" height="1.990993126333251" width="7" fill="#000"></rect><text x="838" y="1055.8639488030335" dy="0.35em" text-anchor="end">Nanyumbu</text></g><g><rect x="844" y="1739.0969424034126" height="0.7916567907086574" width="7" fill="#000"></rect><text x="838" y="1739.492770798767" dy="0.35em" text-anchor="end">Newala</text></g><g><rect x="844" y="846.9352927233944" height="2.422374970372175" width="7" fill="#000"></rect><text x="838" y="848.1464802085804" dy="0.35em" text-anchor="end">Ngara</text></g><g><rect x="844" y="1969.3647783835029" height="0.2559848305286323" width="7" fill="#000"></rect><text x="838" y="1969.4927707987672" dy="0.35em" text-anchor="end">Ngorongoro</text></g><g><rect x="844" y="1662.9722683100254" height="1.000237022991314" width="7" fill="#000"></rect><text x="838" y="1663.472386821521" dy="0.35em" text-anchor="end">Njombe</text></g><g><rect x="844" y="1607.5586631903288" height="1.114008058781792" width="7" fill="#000"></rect><text x="838" y="1608.1156672197199" dy="0.35em" text-anchor="end">Njombe  Town Council</text></g><g><rect x="844" y="98.23654894524788" height="4.721497985304268" width="7" fill="#000"></rect><text x="838" y="100.59729793790001" dy="0.35em" text-anchor="end">Nkasi</text></g><g><rect x="844" y="1917.8525716994545" height="0.34605356719612246" width="7" fill="#000"></rect><text x="838" y="1918.0255984830526" dy="0.35em" text-anchor="end">Nsimbo</text></g><g><rect x="844" y="644.503436833373" height="2.9627873903768887" width="7" fill="#000"></rect><text x="838" y="645.9848305285615" dy="0.35em" text-anchor="end">Nyamagana</text></g><g><rect x="844" y="1813.6193410760839" height="0.48352690210958826" width="7" fill="#000"></rect><text x="838" y="1813.8611045271387" dy="0.35em" text-anchor="end">Nyang'hwale</text></g><g><rect x="844" y="579.5046219483289" height="3.0291538279216184" width="7" fill="#000"></rect><text x="838" y="581.0191988622897" dy="0.35em" text-anchor="end">Nyasa</text></g><g><rect x="844" y="433.88006636643695" height="3.3989096942405013" width="7" fill="#000"></rect><text x="838" y="435.5795212135572" dy="0.35em" text-anchor="end">Nzega</text></g><g><rect x="844" y="1792.5337757762497" height="0.5688551789523899" width="7" fill="#000"></rect><text x="838" y="1792.8182033657258" dy="0.35em" text-anchor="end">Pangani</text></g><g><rect x="844" y="945.78810144584" height="2.1995733586159076" width="7" fill="#000"></rect><text x="838" y="946.8878881251479" dy="0.35em" text-anchor="end">Rombo</text></g><g><rect x="844" y="1596.3972505333008" height="1.161412657027995" width="7" fill="#000"></rect><text x="838" y="1596.9779568618148" dy="0.35em" text-anchor="end">Rorya</text></g><g><rect x="844" y="1517.987674804455" height="1.2420004740456534" width="7" fill="#000"></rect><text x="838" y="1518.608675041478" dy="0.35em" text-anchor="end">Ruangwa</text></g><g><rect x="844" y="1427.4828158331352" height="1.3652524294857358" width="7" fill="#000"></rect><text x="838" y="1428.165442047878" dy="0.35em" text-anchor="end">Rufiji</text></g><g><rect x="844" y="213.82318084854205" height="4.09575728845698" width="7" fill="#000"></rect><text x="838" y="215.87105949277054" dy="0.35em" text-anchor="end">Rungwe</text></g><g><rect x="844" y="1185.219246266887" height="1.6923441573833315" width="7" fill="#000"></rect><text x="838" y="1186.0654183455786" dy="0.35em" text-anchor="end">Same</text></g><g><rect x="844" y="4.547473508864641e-13" height="11.82744726238434" width="7" fill="#000"></rect><text x="838" y="5.9137236311926245" dy="0.35em" text-anchor="end">Sengerema</text></g><g><rect x="844" y="1574.0649442995962" height="1.1661531168524562" width="7" fill="#000"></rect><text x="838" y="1574.6480208580224" dy="0.35em" text-anchor="end">Serengeti</text></g><g><rect x="844" y="227.91893813699903" height="4.062574069684615" width="7" fill="#000"></rect><text x="838" y="229.95022517184134" dy="0.35em" text-anchor="end">Shinyanga Rural</text></g><g><rect x="844" y="772.0123251955441" height="2.5077032472149767" width="7" fill="#000"></rect><text x="838" y="773.2661768191516" dy="0.35em" text-anchor="end">Shinyanga Urban</text></g><g><rect x="844" y="1684.8921545389896" height="0.876985067551459" width="7" fill="#000"></rect><text x="838" y="1685.3306470727653" dy="0.35em" text-anchor="end">Siha</text></g><g><rect x="844" y="1289.8909694240335" height="1.5406494429958002" width="7" fill="#000"></rect><text x="838" y="1290.6612941455314" dy="0.35em" text-anchor="end">Sikonge</text></g><g><rect x="844" y="1006.5726475468114" height="2.1142450817728786" width="7" fill="#000"></rect><text x="838" y="1007.6297700876978" dy="0.35em" text-anchor="end">Simanjiro</text></g><g><rect x="844" y="618.5351979141977" height="2.991230149324565" width="7" fill="#000"></rect><text x="838" y="620.03081298886" dy="0.35em" text-anchor="end">Singida Rural</text></g><g><rect x="844" y="1090.812988859919" height="1.915145769139599" width="7" fill="#000"></rect><text x="838" y="1091.7705617444888" dy="0.35em" text-anchor="end">Singida Urban</text></g><g><rect x="844" y="957.9876748044559" height="2.1948328987909917" width="7" fill="#000"></rect><text x="838" y="959.0850912538514" dy="0.35em" text-anchor="end">Songea Rural</text></g><g><rect x="844" y="970.1825077032469" height="2.137947380895639" width="7" fill="#000"></rect><text x="838" y="971.2514813936947" dy="0.35em" text-anchor="end">Songea Urban</text></g><g><rect x="844" y="1220.248874140791" height="1.6449395591371285" width="7" fill="#000"></rect><text x="838" y="1221.0713439203596" dy="0.35em" text-anchor="end">Sumbawanga Municipal Council</text></g><g><rect x="844" y="1370.4953780516703" height="1.4648020858021482" width="7" fill="#000"></rect><text x="838" y="1371.2277790945714" dy="0.35em" text-anchor="end">Sumbawanga Rural</text></g><g><rect x="844" y="1102.7281346290586" height="1.82981749229657" width="7" fill="#000"></rect><text x="838" y="1103.6430433752068" dy="0.35em" text-anchor="end">Tabora Urban</text></g><g><rect x="844" y="1506.7409338705845" height="1.2467409338705693" width="7" fill="#000"></rect><text x="838" y="1507.3643043375198" dy="0.35em" text-anchor="end">Tandahimba</text></g><g><rect x="844" y="1928.1986252666507" height="0.3081298885990691" width="7" fill="#000"></rect><text x="838" y="1928.3526902109502" dy="0.35em" text-anchor="end">Tanga City Council</text></g><g><rect x="844" y="1208.5944536620045" height="1.6544204787865056" width="7" fill="#000"></rect><text x="838" y="1209.4216639013978" dy="0.35em" text-anchor="end">Tarime</text></g><g><rect x="844" y="1484.1668641858253" height="1.3178478312395328" width="7" fill="#000"></rect><text x="838" y="1484.8257881014451" dy="0.35em" text-anchor="end">Tarime  Town Council</text></g><g><rect x="844" y="325.1102156909218" height="3.692818203365732" width="7" fill="#000"></rect><text x="838" y="326.95662479260466" dy="0.35em" text-anchor="end">Temeke</text></g><g><rect x="844" y="1959.089831713676" height="0.2749466698269316" width="7" fill="#000"></rect><text x="838" y="1959.2273050485894" dy="0.35em" text-anchor="end">Tunduma</text></g><g><rect x="844" y="1018.6868926285842" height="2.090542782650118" width="7" fill="#000"></rect><text x="838" y="1019.7321640199093" dy="0.35em" text-anchor="end">Tunduru</text></g><g><rect x="844" y="1161.768191514576" height="1.7444892154539957" width="7" fill="#000"></rect><text x="838" y="1162.640436122303" dy="0.35em" text-anchor="end">Ukerewe</text></g><g><rect x="844" y="1629.7724579284184" height="1.0808248400094271" width="7" fill="#000"></rect><text x="838" y="1630.312870348423" dy="0.35em" text-anchor="end">Ulanga</text></g><g><rect x="844" y="352.4674093387056" height="3.6501540649442177" width="7" fill="#000"></rect><text x="838" y="354.2924863711777" dy="0.35em" text-anchor="end">Urambo</text></g><g><rect x="844" y="473.9440625740692" height="3.3230623370468493" width="7" fill="#000"></rect><text x="838" y="475.60559374259265" dy="0.35em" text-anchor="end">Ushetu</text></g><g><rect x="844" y="797.0229912301496" height="2.498222327565827" width="7" fill="#000"></rect><text x="838" y="798.2721023939325" dy="0.35em" text-anchor="end">Uvinza</text></g><g><rect x="844" y="283.75681441099755" height="3.8729556767007125" width="7" fill="#000"></rect><text x="838" y="285.6932922493479" dy="0.35em" text-anchor="end">Uyui</text></g><g><rect x="844" y="1834.586394880303" height="0.4693055226357501" width="7" fill="#000"></rect><text x="838" y="1834.821047641621" dy="0.35em" text-anchor="end">Wanging'ombe</text></g><g><rect x="0" y="1095.6245555818914" height="12.562218535197871" width="7" fill="#000"></rect><text x="13" y="1101.9056648494902" dy="0.35em" text-anchor="start">Arusha</text></g><g><rect x="0" y="1140.29864896895" height="11.244370703958339" width="7" fill="#000"></rect><text x="13" y="1145.920834320929" dy="0.35em" text-anchor="start">Dar es Salaam</text></g><g><rect x="0" y="894.7475705143403" height="16.795449158568317" width="7" fill="#000"></rect><text x="13" y="903.1452950936244" dy="0.35em" text-anchor="start">Dodoma</text></g><g><rect x="0" y="837.7530220431385" height="19.53543493718893" width="7" fill="#000"></rect><text x="13" y="847.5207395117329" dy="0.35em" text-anchor="start">Geita</text></g><g><rect x="0" y="1262.062100023702" height="7.755392273050575" width="7" fill="#000"></rect><text x="13" y="1265.9397961602272" dy="0.35em" text-anchor="start">Iringa</text></g><g><rect x="0" y="999.3979616022756" height="14.44418108556522" width="7" fill="#000"></rect><text x="13" y="1006.6200521450583" dy="0.35em" text-anchor="start">Kagera</text></g><g><rect x="0" y="1295.9089831713673" height="4.091016828632291" width="7" fill="#000"></rect><text x="13" y="1297.9544915856834" dy="0.35em" text-anchor="start">Katavi</text></g><g><rect x="0" y="1161.5430196729083" height="10.680255984830524" width="7" fill="#000"></rect><text x="13" y="1166.8831476653236" dy="0.35em" text-anchor="start">Kigoma</text></g><g><rect x="0" y="1202.5954017539698" height="10.267835980090013" width="7" fill="#000"></rect><text x="13" y="1207.729319744015" dy="0.35em" text-anchor="start">Kilimanjaro</text></g><g><rect x="0" y="1242.5432566958991" height="9.51884332780287" width="7" fill="#000"></rect><text x="13" y="1247.3026783598007" dy="0.35em" text-anchor="start">Lindi</text></g><g><rect x="0" y="921.5430196729086" height="16.48257881014456" width="7" fill="#000"></rect><text x="13" y="929.7843090779809" dy="0.35em" text-anchor="start">Manyara</text></g><g><rect x="0" y="1023.8421426878408" height="14.050722920123235" width="7" fill="#000"></rect><text x="13" y="1030.8675041479023" dy="0.35em" text-anchor="start">Mara</text></g><g><rect x="0" y="774.8471201706568" height="23.09552026546578" width="7" fill="#000"></rect><text x="13" y="786.3948803033898" dy="0.35em" text-anchor="start">Mbeya</text></g><g><rect x="0" y="1071.8961839298413" height="13.728371652050214" width="7" fill="#000"></rect><text x="13" y="1078.7603697558663" dy="0.35em" text-anchor="start">Morogoro</text></g><g><rect x="0" y="1118.1867741170893" height="12.111874851860648" width="7" fill="#000"></rect><text x="13" y="1124.2427115430196" dy="0.35em" text-anchor="start">Mtwara</text></g><g><rect x="0" y="700.0000000000002" height="30.39108793552964" width="7" fill="#000"></rect><text x="13" y="715.195543967765" dy="0.35em" text-anchor="start">Mwanza</text></g><g><rect x="0" y="1279.8174922967526" height="6.091490874614692" width="7" fill="#000"></rect><text x="13" y="1282.86323773406" dy="0.35em" text-anchor="start">Njombe</text></g><g><rect x="0" y="1222.8632377340598" height="9.680018961839323" width="7" fill="#000"></rect><text x="13" y="1227.7032472149795" dy="0.35em" text-anchor="start">Pwani</text></g><g><rect x="0" y="1182.2232756577387" height="10.372126096231113" width="7" fill="#000"></rect><text x="13" y="1187.4093387058542" dy="0.35em" text-anchor="start">Rukwa</text></g><g><rect x="0" y="948.0255984830532" height="16.141265702773126" width="7" fill="#000"></rect><text x="13" y="956.0962313344397" dy="0.35em" text-anchor="start">Ruvuma</text></g><g><rect x="0" y="867.2884569803274" height="17.459113534012886" width="7" fill="#000"></rect><text x="13" y="876.0180137473338" dy="0.35em" text-anchor="start">Shinyanga</text></g><g><rect x="0" y="1047.892865607964" height="14.003318321877202" width="7" fill="#000"></rect><text x="13" y="1054.8945247689026" dy="0.35em" text-anchor="start">Simiyu</text></g><g><rect x="0" y="974.1668641858263" height="15.231097416449302" width="7" fill="#000"></rect><text x="13" y="981.7824128940509" dy="0.35em" text-anchor="start">Singida</text></g><g><rect x="0" y="807.9426404361226" height="19.81038160701587" width="7" fill="#000"></rect><text x="13" y="817.8478312396305" dy="0.35em" text-anchor="start">Tabora</text></g><g><rect x="0" y="740.3910879355299" height="24.456032235126884" width="7" fill="#000"></rect><text x="13" y="752.6191040530933" dy="0.35em" text-anchor="start">Tanga</text></g></g></g></svg>